<?xml version="1.0" encoding="utf-8"?>
<svg viewBox="0 0 500 500" width="500" height="500" xmlns="http://www.w3.org/2000/svg">
  <rect width="500" height="500" style="fill: rgb(216, 216, 216);" transform="matrix(1, 0, 0, 1, -1.1368683772161603e-13, 0)"/>
  <g id="Sharp" transform="matrix(13.333333969116211, 0, 0, 8.88888931274414, 89.99999999999989, 83.33333587646484)">
    <g id="ui_x5F_spec_x5F_header_copy_2"/>
    <path d="M21,3v8.59l-3-3.01l-4,4.01l-4-4l-4,4L3,9.58V3H21z M18,11.42l3,3.01V21H3v-8.58l3,2.99l4-4l4,4L18,11.42z" style="fill: rgb(107, 107, 107);"/>
  </g>
  <path d="M 92.297 353.748 L 92.297 381.688 L 88.607 381.688 L 88.607 353.748 L 92.297 353.748 ZM 98.455 360.928 L 101.815 360.928 L 101.905 363.228 C 103.425 361.435 105.478 360.538 108.065 360.538 C 110.972 360.538 112.948 361.651 113.995 363.878 C 114.688 362.885 115.588 362.078 116.695 361.458 C 117.802 360.845 119.108 360.538 120.615 360.538 C 125.168 360.538 127.485 362.951 127.565 367.778 L 127.565 381.688 L 124.015 381.688 L 124.015 367.988 C 124.015 366.501 123.675 365.391 122.995 364.658 C 122.315 363.925 121.175 363.558 119.575 363.558 C 118.262 363.558 117.168 363.951 116.295 364.738 C 115.428 365.525 114.925 366.581 114.785 367.908 L 114.785 381.688 L 111.215 381.688 L 111.215 368.078 C 111.215 365.065 109.738 363.558 106.785 363.558 C 104.452 363.558 102.858 364.548 102.005 366.528 L 102.005 381.688 L 98.455 381.688 L 98.455 360.928 ZM 149.459 381.688 L 145.739 381.688 C 145.532 381.281 145.365 380.551 145.239 379.498 C 143.585 381.211 141.615 382.068 139.329 382.068 C 137.282 382.068 135.602 381.491 134.289 380.338 C 132.975 379.178 132.319 377.708 132.319 375.928 C 132.319 373.768 133.142 372.091 134.789 370.898 C 136.429 369.698 138.739 369.098 141.719 369.098 L 145.179 369.098 L 145.179 367.468 C 145.179 366.228 144.809 365.241 144.069 364.508 C 143.322 363.768 142.225 363.398 140.779 363.398 C 139.512 363.398 138.452 363.718 137.599 364.358 C 136.739 364.998 136.309 365.771 136.309 366.678 L 132.739 366.678 C 132.739 365.645 133.109 364.645 133.849 363.678 C 134.582 362.711 135.579 361.948 136.839 361.388 C 138.099 360.821 139.485 360.538 140.999 360.538 C 143.385 360.538 145.259 361.138 146.619 362.338 C 147.972 363.531 148.675 365.178 148.729 367.278 L 148.729 376.838 C 148.729 378.738 148.972 380.251 149.459 381.378 L 149.459 381.688 Z M 139.839 378.978 C 140.952 378.978 142.009 378.691 143.009 378.118 C 144.009 377.545 144.732 376.798 145.179 375.878 L 145.179 371.618 L 142.399 371.618 C 138.045 371.618 135.869 372.888 135.869 375.428 C 135.869 376.541 136.239 377.411 136.979 378.038 C 137.725 378.665 138.679 378.978 139.839 378.978 ZM 153.445 371.138 C 153.445 367.898 154.195 365.321 155.695 363.408 C 157.188 361.495 159.171 360.538 161.645 360.538 C 164.178 360.538 166.155 361.435 167.575 363.228 L 167.745 360.928 L 170.985 360.928 L 170.985 381.188 C 170.985 383.875 170.188 385.991 168.595 387.538 C 167.001 389.085 164.861 389.858 162.175 389.858 C 160.681 389.858 159.218 389.541 157.785 388.908 C 156.351 388.268 155.258 387.391 154.505 386.278 L 156.345 384.148 C 157.865 386.028 159.725 386.968 161.925 386.968 C 163.651 386.968 164.998 386.481 165.965 385.508 C 166.931 384.535 167.415 383.165 167.415 381.398 L 167.415 379.618 C 165.995 381.251 164.058 382.068 161.605 382.068 C 159.171 382.068 157.205 381.091 155.705 379.138 C 154.198 377.178 153.445 374.511 153.445 371.138 Z M 157.015 371.538 C 157.015 373.878 157.495 375.718 158.455 377.058 C 159.415 378.391 160.758 379.058 162.485 379.058 C 164.725 379.058 166.368 378.041 167.415 376.008 L 167.415 366.528 C 166.328 364.548 164.698 363.558 162.525 363.558 C 160.798 363.558 159.448 364.228 158.475 365.568 C 157.501 366.915 157.015 368.905 157.015 371.538 ZM 184.952 382.068 C 182.139 382.068 179.849 381.145 178.082 379.298 C 176.316 377.451 175.432 374.978 175.432 371.878 L 175.432 371.228 C 175.432 369.168 175.826 367.328 176.612 365.708 C 177.399 364.095 178.502 362.831 179.922 361.918 C 181.336 360.998 182.866 360.538 184.512 360.538 C 187.212 360.538 189.312 361.428 190.812 363.208 C 192.306 364.988 193.052 367.535 193.052 370.848 L 193.052 372.328 L 178.982 372.328 C 179.036 374.375 179.636 376.028 180.782 377.288 C 181.929 378.548 183.382 379.178 185.142 379.178 C 186.402 379.178 187.466 378.921 188.332 378.408 C 189.199 377.895 189.959 377.215 190.612 376.368 L 192.782 378.058 C 191.042 380.731 188.432 382.068 184.952 382.068 Z M 184.512 363.458 C 183.079 363.458 181.876 363.978 180.902 365.018 C 179.936 366.065 179.336 367.528 179.102 369.408 L 189.502 369.408 L 189.502 369.138 C 189.402 367.331 188.916 365.935 188.042 364.948 C 187.176 363.955 185.999 363.458 184.512 363.458 ZM 223.411 353.748 L 227.111 353.748 L 227.111 372.748 C 227.097 375.381 226.271 377.535 224.631 379.208 C 222.984 380.888 220.754 381.831 217.941 382.038 L 216.961 382.068 C 213.901 382.068 211.464 381.245 209.651 379.598 C 207.831 377.945 206.911 375.675 206.891 372.788 L 206.891 353.748 L 210.531 353.748 L 210.531 372.668 C 210.531 374.688 211.087 376.258 212.201 377.378 C 213.314 378.498 214.901 379.058 216.961 379.058 C 219.047 379.058 220.644 378.501 221.751 377.388 C 222.857 376.275 223.411 374.708 223.411 372.688 L 223.411 353.748 ZM 232.373 360.928 L 235.723 360.928 L 235.843 363.538 C 237.43 361.538 239.503 360.538 242.063 360.538 C 246.45 360.538 248.663 363.015 248.703 367.968 L 248.703 381.688 L 245.153 381.688 L 245.153 367.948 C 245.14 366.455 244.796 365.348 244.123 364.628 C 243.45 363.915 242.403 363.558 240.983 363.558 C 239.836 363.558 238.826 363.865 237.953 364.478 C 237.086 365.091 236.41 365.895 235.923 366.888 L 235.923 381.688 L 232.373 381.688 L 232.373 360.928 ZM 270.596 381.688 L 266.876 381.688 C 266.669 381.281 266.503 380.551 266.376 379.498 C 264.723 381.211 262.753 382.068 260.466 382.068 C 258.419 382.068 256.739 381.491 255.426 380.338 C 254.113 379.178 253.456 377.708 253.456 375.928 C 253.456 373.768 254.279 372.091 255.926 370.898 C 257.566 369.698 259.876 369.098 262.856 369.098 L 266.316 369.098 L 266.316 367.468 C 266.316 366.228 265.946 365.241 265.206 364.508 C 264.459 363.768 263.363 363.398 261.916 363.398 C 260.649 363.398 259.589 363.718 258.736 364.358 C 257.876 364.998 257.446 365.771 257.446 366.678 L 253.876 366.678 C 253.876 365.645 254.246 364.645 254.986 363.678 C 255.719 362.711 256.716 361.948 257.976 361.388 C 259.236 360.821 260.623 360.538 262.136 360.538 C 264.523 360.538 266.396 361.138 267.756 362.338 C 269.109 363.531 269.813 365.178 269.866 367.278 L 269.866 376.838 C 269.866 378.738 270.109 380.251 270.596 381.378 L 270.596 381.688 Z M 260.976 378.978 C 262.089 378.978 263.146 378.691 264.146 378.118 C 265.146 377.545 265.869 376.798 266.316 375.878 L 266.316 371.618 L 263.536 371.618 C 259.183 371.618 257.006 372.888 257.006 375.428 C 257.006 376.541 257.376 377.411 258.116 378.038 C 258.863 378.665 259.816 378.978 260.976 378.978 ZM 276.714 360.928 L 281.994 376.868 L 287.134 360.928 L 290.764 360.928 L 283.314 381.688 L 280.614 381.688 L 273.084 360.928 L 276.714 360.928 ZM 310.432 381.688 L 306.712 381.688 C 306.505 381.281 306.338 380.551 306.212 379.498 C 304.558 381.211 302.588 382.068 300.302 382.068 C 298.255 382.068 296.575 381.491 295.262 380.338 C 293.948 379.178 293.292 377.708 293.292 375.928 C 293.292 373.768 294.115 372.091 295.762 370.898 C 297.402 369.698 299.712 369.098 302.692 369.098 L 306.152 369.098 L 306.152 367.468 C 306.152 366.228 305.782 365.241 305.042 364.508 C 304.295 363.768 303.198 363.398 301.752 363.398 C 300.485 363.398 299.425 363.718 298.572 364.358 C 297.712 364.998 297.282 365.771 297.282 366.678 L 293.712 366.678 C 293.712 365.645 294.082 364.645 294.822 363.678 C 295.555 362.711 296.552 361.948 297.812 361.388 C 299.072 360.821 300.458 360.538 301.972 360.538 C 304.358 360.538 306.232 361.138 307.592 362.338 C 308.945 363.531 309.648 365.178 309.702 367.278 L 309.702 376.838 C 309.702 378.738 309.945 380.251 310.432 381.378 L 310.432 381.688 Z M 300.812 378.978 C 301.925 378.978 302.982 378.691 303.982 378.118 C 304.982 377.545 305.705 376.798 306.152 375.878 L 306.152 371.618 L 303.372 371.618 C 299.018 371.618 296.842 372.888 296.842 375.428 C 296.842 376.541 297.212 377.411 297.952 378.038 C 298.698 378.665 299.652 378.978 300.812 378.978 ZM 319.118 360.928 L 319.118 381.688 L 315.568 381.688 L 315.568 360.928 L 319.118 360.928 Z M 315.288 355.418 C 315.288 354.845 315.461 354.358 315.808 353.958 C 316.161 353.565 316.684 353.368 317.378 353.368 C 318.064 353.368 318.588 353.565 318.948 353.958 C 319.308 354.358 319.488 354.845 319.488 355.418 C 319.488 355.991 319.308 356.471 318.948 356.858 C 318.588 357.238 318.064 357.428 317.378 357.428 C 316.684 357.428 316.161 357.238 315.808 356.858 C 315.461 356.471 315.288 355.991 315.288 355.418 ZM 328.654 352.218 L 328.654 381.688 L 325.104 381.688 L 325.104 352.218 L 328.654 352.218 ZM 350.881 381.688 L 347.161 381.688 C 346.954 381.281 346.788 380.551 346.661 379.498 C 345.008 381.211 343.038 382.068 340.751 382.068 C 338.704 382.068 337.024 381.491 335.711 380.338 C 334.398 379.178 333.741 377.708 333.741 375.928 C 333.741 373.768 334.564 372.091 336.211 370.898 C 337.851 369.698 340.161 369.098 343.141 369.098 L 346.601 369.098 L 346.601 367.468 C 346.601 366.228 346.231 365.241 345.491 364.508 C 344.744 363.768 343.648 363.398 342.201 363.398 C 340.934 363.398 339.874 363.718 339.021 364.358 C 338.161 364.998 337.731 365.771 337.731 366.678 L 334.161 366.678 C 334.161 365.645 334.531 364.645 335.271 363.678 C 336.004 362.711 337.001 361.948 338.261 361.388 C 339.521 360.821 340.908 360.538 342.421 360.538 C 344.808 360.538 346.681 361.138 348.041 362.338 C 349.394 363.531 350.098 365.178 350.151 367.278 L 350.151 376.838 C 350.151 378.738 350.394 380.251 350.881 381.378 L 350.881 381.688 Z M 341.261 378.978 C 342.374 378.978 343.431 378.691 344.431 378.118 C 345.431 377.545 346.154 376.798 346.601 375.878 L 346.601 371.618 L 343.821 371.618 C 339.468 371.618 337.291 372.888 337.291 375.428 C 337.291 376.541 337.661 377.411 338.401 378.038 C 339.148 378.665 340.101 378.978 341.261 378.978 ZM 373.287 371.228 L 373.287 371.538 C 373.287 374.711 372.561 377.261 371.107 379.188 C 369.647 381.108 367.687 382.068 365.227 382.068 C 362.607 382.068 360.581 381.141 359.147 379.288 L 358.977 381.688 L 355.717 381.688 L 355.717 352.218 L 359.267 352.218 L 359.267 363.208 C 360.701 361.428 362.677 360.538 365.197 360.538 C 367.717 360.538 369.697 361.491 371.137 363.398 C 372.571 365.305 373.287 367.915 373.287 371.228 Z M 369.737 371.138 C 369.737 368.718 369.271 366.848 368.337 365.528 C 367.404 364.215 366.061 363.558 364.307 363.558 C 361.967 363.558 360.287 364.645 359.267 366.818 L 359.267 375.798 C 360.354 377.971 362.047 379.058 364.347 379.058 C 366.047 379.058 367.371 378.398 368.317 377.078 C 369.264 375.765 369.737 373.785 369.737 371.138 ZM 381.615 352.218 L 381.615 381.688 L 378.065 381.688 L 378.065 352.218 L 381.615 352.218 ZM 395.912 382.068 C 393.098 382.068 390.808 381.145 389.042 379.298 C 387.275 377.451 386.392 374.978 386.392 371.878 L 386.392 371.228 C 386.392 369.168 386.785 367.328 387.572 365.708 C 388.358 364.095 389.462 362.831 390.882 361.918 C 392.295 360.998 393.825 360.538 395.472 360.538 C 398.172 360.538 400.272 361.428 401.772 363.208 C 403.265 364.988 404.012 367.535 404.012 370.848 L 404.012 372.328 L 389.942 372.328 C 389.995 374.375 390.595 376.028 391.742 377.288 C 392.888 378.548 394.342 379.178 396.102 379.178 C 397.362 379.178 398.425 378.921 399.292 378.408 C 400.158 377.895 400.918 377.215 401.572 376.368 L 403.742 378.058 C 402.002 380.731 399.392 382.068 395.912 382.068 Z M 395.472 363.458 C 394.038 363.458 392.835 363.978 391.862 365.018 C 390.895 366.065 390.295 367.528 390.062 369.408 L 400.462 369.408 L 400.462 369.138 C 400.362 367.331 399.875 365.935 399.002 364.948 C 398.135 363.955 396.958 363.458 395.472 363.458 Z" transform="matrix(0.9990729689598083, 0, 0, 0.999998927116394, 4.985134124755859, 0.32056599855422974)" style="fill: rgb(107, 107, 107); white-space: pre;"/>
</svg>