<?xml version="1.0" encoding="utf-8"?>
<svg viewBox="13.800000190734863 13.399999618530273 72.4000015258789 73.19999694824219" width="72.4000015258789" height="73.19999694824219" style="enable-background:new 0 0 100 100;" xmlns="http://www.w3.org/2000/svg">
  <g transform="matrix(1, 0, 0, 1, -1.7763568394002505e-15, 0)">
    <rect x="52.4" y="21.4" width="25.8" height="18.2" style="fill: rgb(0, 191, 236);"/>
    <polygon points="21.8,55.6 47.6,55.6 47.6,44.4 47.6,39.6 47.6,21.4 21.8,21.4  " style="fill: rgb(0, 70, 81);"/>
    <rect x="52.4" y="44.4" width="25.8" height="34.2" style="fill: rgb(0, 70, 81);"/>
    <rect x="21.8" y="60.4" width="25.8" height="18.2" style="fill: rgb(0, 191, 236);"/>
  </g>
  <path d="M 38.553 37.111 L 38.553 38.951 L 31.153 38.951 L 31.153 45.001 L 39.743 45.001 L 39.743 46.841 L 28.903 46.841 L 28.903 29.781 L 39.623 29.781 L 39.623 31.631 L 31.153 31.631 L 31.153 37.111 L 38.553 37.111 Z" transform="matrix(1, 0, 0, 1, -1.7763568394002505e-15, 0)" style="fill: rgb(132, 239, 255); fill-opacity: 0.45; white-space: pre;"/>
  <path d="M 66.155 63.262 L 62.135 63.262 L 62.135 69.942 L 59.885 69.942 L 59.885 52.882 L 66.175 52.882 C 68.042 52.882 69.505 53.359 70.565 54.312 C 71.625 55.265 72.155 56.525 72.155 58.092 C 72.155 59.752 71.638 61.029 70.605 61.922 C 69.565 62.815 68.082 63.262 66.155 63.262 Z M 62.135 54.732 L 62.135 61.422 L 66.175 61.422 C 67.382 61.422 68.305 61.139 68.945 60.572 C 69.585 60.005 69.905 59.189 69.905 58.122 C 69.905 57.102 69.585 56.289 68.945 55.682 C 68.305 55.069 67.425 54.752 66.305 54.732 L 62.135 54.732 Z" transform="matrix(1, 0, 0, 1, -1.7763568394002505e-15, 0)" style="fill: rgb(132, 239, 255); fill-opacity: 0.45; white-space: pre;"/>
</svg>